<svg width="110" height="34" viewBox="0 0 110 34" fill="none" xmlns="http://www.w3.org/2000/svg">
  <path d="M35.7522 19.1924C35.7531 19.2383 35.7411 19.2835 35.7177 19.3229C35.6809 19.3682 35.6316 19.4016 35.5759 19.4188C35.482 19.4462 35.3858 19.4654 35.2886 19.4764C35.166 19.4764 35.0127 19.4764 34.8288 19.4764C34.6175 19.4813 34.4062 19.4698 34.1967 19.4418C34.0982 19.4307 34.0037 19.3965 33.9208 19.3421C33.8651 19.2981 33.8204 19.2416 33.7906 19.1771L31.147 15.0295V19.1771C31.1489 19.2236 31.1354 19.2695 31.1087 19.3075C31.0704 19.3503 31.0215 19.3821 30.9669 19.3996C30.8782 19.4272 30.7871 19.4465 30.6949 19.4572C30.5519 19.4644 30.4087 19.4644 30.2658 19.4572C30.0934 19.4572 29.9516 19.4572 29.8367 19.4572C29.7431 19.4465 29.6508 19.4273 29.5608 19.3996C29.5059 19.3804 29.4561 19.3489 29.4152 19.3075C29.3871 19.27 29.3722 19.2241 29.3731 19.1771V10.9585C29.3722 10.9116 29.3871 10.8657 29.4152 10.8281C29.4557 10.7871 29.5058 10.7568 29.5608 10.7398C29.651 10.7139 29.7433 10.6959 29.8367 10.6861C29.9516 10.6861 30.0934 10.6861 30.2658 10.6861C30.4087 10.6789 30.5519 10.6789 30.6949 10.6861C30.787 10.6958 30.878 10.7137 30.9669 10.7398C31.0217 10.7548 31.071 10.7855 31.1087 10.8281C31.1354 10.8662 31.1489 10.912 31.147 10.9585V14.6803L33.7063 10.9624C33.7373 10.9085 33.7761 10.8594 33.8212 10.8166C33.8736 10.7759 33.9335 10.7459 33.9974 10.7283C34.0876 10.7027 34.1799 10.686 34.2733 10.6785C34.3882 10.6785 34.53 10.6785 34.7062 10.6785C34.8825 10.6785 35.0357 10.6785 35.1507 10.6785C35.2467 10.6893 35.3415 10.7086 35.4342 10.736C35.4894 10.7522 35.5387 10.7842 35.5759 10.8281C35.605 10.8622 35.6201 10.9061 35.6181 10.9509C35.6168 11.0327 35.5958 11.113 35.5568 11.1849C35.4877 11.3172 35.4109 11.4453 35.3269 11.5686L32.9323 14.7148L35.5453 18.6706C35.6124 18.7945 35.6713 18.9227 35.7215 19.0543C35.7396 19.0982 35.75 19.145 35.7522 19.1924Z" fill="#1A171B"/>
  <path d="M38.6409 19.2116C38.6408 19.2567 38.6245 19.3003 38.5949 19.3344C38.5566 19.3762 38.5076 19.4067 38.4532 19.4226C38.3643 19.4487 38.2733 19.4667 38.1812 19.4763C38.0369 19.4836 37.8925 19.4836 37.7482 19.4763C37.5797 19.4763 37.4341 19.4763 37.3191 19.4763C37.2271 19.4663 37.1361 19.4483 37.0471 19.4226C36.9916 19.4067 36.9414 19.3762 36.9015 19.3344C36.8747 19.299 36.8599 19.256 36.8594 19.2116V10.9508C36.8594 10.9064 36.8742 10.8631 36.9015 10.8281C36.9429 10.7862 36.9944 10.7558 37.0509 10.7398C37.1399 10.7142 37.2309 10.6962 37.323 10.6861C37.4379 10.6861 37.5797 10.6861 37.7482 10.6861C37.8925 10.6788 38.0369 10.6788 38.1812 10.6861C38.2733 10.6957 38.3643 10.7137 38.4532 10.7398C38.5076 10.7557 38.5566 10.7862 38.5949 10.8281C38.6251 10.8618 38.6415 10.9056 38.6409 10.9508V19.2116Z" fill="#1A171B"/>
  <path d="M47.717 18.8317C47.7188 18.9282 47.6992 19.0239 47.6595 19.1118C47.6259 19.1881 47.5777 19.2572 47.5178 19.3152C47.4548 19.3698 47.38 19.4092 47.2994 19.4303C47.2176 19.4561 47.1323 19.469 47.0465 19.4686H46.2803C46.1422 19.4709 46.0044 19.4554 45.8703 19.4226C45.7527 19.3897 45.644 19.3307 45.5523 19.2499C45.4442 19.1506 45.3501 19.0371 45.2727 18.9123C45.1845 18.7703 45.0811 18.5862 44.97 18.3598L42.7938 14.2697C42.6712 14.0241 42.5409 13.7632 42.4107 13.5023C42.2804 13.2414 42.1616 12.946 42.0582 12.6812C42.0582 13.0035 42.0889 13.3258 42.0965 13.6481C42.1042 13.9704 42.0965 14.3042 42.0965 14.6457V19.2039C42.0979 19.248 42.0844 19.2912 42.0582 19.3267C42.0255 19.3686 41.9817 19.4005 41.9318 19.4188C41.8509 19.4463 41.7675 19.4655 41.6827 19.4763C41.4203 19.5019 41.156 19.5019 40.8935 19.4763C40.8112 19.4661 40.7302 19.4468 40.6521 19.4188C40.6039 19.3994 40.5616 19.3676 40.5295 19.3267C40.5061 19.2901 40.4941 19.2473 40.495 19.2039V11.3422C40.489 11.2539 40.5027 11.1654 40.5352 11.083C40.5677 11.0007 40.6181 10.9267 40.6828 10.8664C40.8094 10.7578 40.972 10.7003 41.1387 10.7053H42.0889C42.2345 10.7024 42.38 10.7179 42.5218 10.7513C42.6357 10.7768 42.7429 10.8266 42.836 10.8971C42.9386 10.9743 43.0268 11.0692 43.0965 11.1772C43.1903 11.3179 43.2735 11.4654 43.3455 11.6184L45.0466 14.8184C45.1462 15.0102 45.242 15.2021 45.3416 15.3901C45.4412 15.5781 45.5293 15.7737 45.6213 15.9502C45.7133 16.1267 45.7975 16.3339 45.8857 16.4989C45.9738 16.6639 46.0542 16.8596 46.1347 17.0399C46.1347 16.7253 46.1079 16.3953 46.104 16.0538C46.1002 15.7124 46.104 15.3862 46.104 15.0754V10.97C46.1027 10.9253 46.1177 10.8817 46.1462 10.8472C46.182 10.8053 46.2283 10.7735 46.2803 10.7551C46.3601 10.724 46.444 10.7046 46.5293 10.6976C46.6569 10.6909 46.7848 10.6909 46.9124 10.6976C47.0401 10.6905 47.168 10.6905 47.2956 10.6976C47.3785 10.704 47.46 10.7235 47.5369 10.7551C47.5842 10.7744 47.6252 10.8063 47.6557 10.8472C47.6787 10.884 47.6907 10.9266 47.6902 10.97L47.717 18.8317Z" fill="#1A171B"/>
  <path d="M56.828 14.9527C56.8502 15.653 56.749 16.3517 56.5291 17.0169C56.3455 17.5471 56.0366 18.0249 55.6288 18.4097C55.2197 18.7809 54.7307 19.0527 54.1997 19.2039C53.5488 19.3848 52.8752 19.4701 52.1998 19.4571H50.1117C49.972 19.4646 49.8348 19.4179 49.7286 19.3267C49.6729 19.2709 49.6303 19.2034 49.6038 19.1291C49.5773 19.0548 49.5676 18.9755 49.5754 18.897V11.2616C49.5676 11.1831 49.5773 11.1038 49.6038 11.0295C49.6303 10.9552 49.6729 10.8877 49.7286 10.8319C49.8344 10.7397 49.9716 10.6916 50.1117 10.6976H52.3569C53.0277 10.6821 53.6966 10.7754 54.3376 10.9739C54.8483 11.1379 55.3157 11.4146 55.7054 11.7834C56.0852 12.1561 56.3759 12.6099 56.556 13.111C56.753 13.7043 56.845 14.3276 56.828 14.9527ZM54.9928 15.0141C54.9952 14.6256 54.9462 14.2386 54.8472 13.863C54.7595 13.5243 54.6016 13.2079 54.3836 12.9345C54.1614 12.6684 53.879 12.4592 53.5599 12.3244C53.1392 12.1604 52.6893 12.0847 52.2381 12.1019H51.3416V18.0529H52.2649C52.6828 18.0645 53.0994 18.0008 53.4948 17.8649C53.8149 17.7462 54.1006 17.5497 54.3262 17.2932C54.5618 17.0171 54.7332 16.6921 54.8281 16.3416C54.947 15.9094 55.0038 15.4624 54.9966 15.0141H54.9928Z" fill="#1A171B"/>
  <path d="M63.4256 18.7589C63.4324 18.8675 63.4324 18.9764 63.4256 19.085C63.4173 19.1587 63.3993 19.231 63.3719 19.2999C63.3545 19.3461 63.3255 19.3871 63.2876 19.4188C63.2551 19.4416 63.2162 19.4537 63.1765 19.4534H58.7744C58.6348 19.46 58.4978 19.4134 58.3912 19.3229C58.3362 19.2666 58.294 19.1991 58.2675 19.1249C58.2411 19.0507 58.231 18.9716 58.238 18.8932V11.2617C58.231 11.1832 58.2411 11.1042 58.2675 11.03C58.294 10.9558 58.3362 10.8882 58.3912 10.8319C58.4975 10.7404 58.6343 10.6924 58.7744 10.6977H63.1344C63.173 10.6968 63.2108 10.709 63.2417 10.7322C63.2811 10.7624 63.3105 10.8038 63.3259 10.8511C63.3496 10.9209 63.3663 10.9929 63.3758 11.066C63.3827 11.1784 63.3827 11.2912 63.3758 11.4036C63.3825 11.5097 63.3825 11.616 63.3758 11.7221C63.3667 11.7953 63.35 11.8673 63.3259 11.937C63.3085 11.9832 63.2795 12.0242 63.2417 12.0559C63.2108 12.0791 63.173 12.0913 63.1344 12.0904H60.0157V14.2276H62.6593C62.6997 14.2269 62.739 14.2405 62.7704 14.2659C62.8091 14.2953 62.8384 14.3353 62.8547 14.381C62.8808 14.4474 62.8976 14.5172 62.9045 14.5882C62.93 14.8036 62.93 15.0213 62.9045 15.2367C62.8973 15.3064 62.8805 15.3748 62.8547 15.44C62.8395 15.4853 62.8099 15.5244 62.7704 15.5513C62.7378 15.574 62.699 15.5861 62.6593 15.5858H60.0157V18.0529H63.1612C63.2013 18.054 63.2401 18.0674 63.2723 18.0913C63.3101 18.123 63.3392 18.164 63.3566 18.2102C63.3835 18.2779 63.4016 18.3489 63.4102 18.4212C63.4224 18.5334 63.4275 18.6461 63.4256 18.7589Z" fill="#1A171B"/>
  <path d="M71.3754 19.227C71.3769 19.2695 71.3676 19.3117 71.3485 19.3497C71.3485 19.3843 71.2911 19.4111 71.2221 19.4341C71.1249 19.4621 71.0244 19.4776 70.9233 19.4802C70.793 19.4802 70.6168 19.4802 70.3907 19.4802C70.1647 19.4802 70.0536 19.4802 69.9386 19.4802C69.8485 19.4773 69.7593 19.4604 69.6743 19.4303C69.6189 19.4145 69.5695 19.3825 69.5325 19.3382C69.5041 19.2943 69.4822 19.2465 69.4674 19.1963L68.682 17.2433C68.59 17.0233 68.4981 16.8276 68.4061 16.6563C68.327 16.4998 68.2264 16.3551 68.1073 16.2265C67.9999 16.1128 67.8692 16.0238 67.7241 15.9656C67.5653 15.9046 67.3962 15.8746 67.2261 15.8774H66.6705V19.2116C66.67 19.256 66.6552 19.299 66.6284 19.3344C66.5885 19.3762 66.5383 19.4067 66.4828 19.4226C66.3951 19.4484 66.3054 19.4663 66.2146 19.4764C66.0997 19.4764 65.9579 19.4764 65.7817 19.4764C65.6054 19.4764 65.4675 19.4764 65.3526 19.4764C65.2592 19.4666 65.1669 19.4486 65.0767 19.4226C65.0223 19.4067 64.9733 19.3762 64.935 19.3344C64.9093 19.2987 64.8958 19.2556 64.8967 19.2116V11.2616C64.8889 11.1831 64.8986 11.1038 64.9251 11.0295C64.9516 10.9552 64.9942 10.8877 65.0499 10.8319C65.1557 10.7397 65.2929 10.6916 65.433 10.6976H67.6973C67.9234 10.6976 68.1149 10.6976 68.2644 10.6976C68.4138 10.6976 68.5479 10.6976 68.6666 10.7322C68.9935 10.7747 69.313 10.8612 69.6168 10.9892C69.8817 11.1083 70.1211 11.2777 70.3218 11.488C70.5177 11.6858 70.6704 11.9223 70.77 12.1825C70.8776 12.4786 70.9296 12.7921 70.9233 13.1072C70.9275 13.3786 70.89 13.6491 70.8122 13.9091C70.7427 14.1416 70.6325 14.3599 70.4865 14.5537C70.3367 14.7462 70.1569 14.9134 69.954 15.0486C69.7283 15.1923 69.4849 15.3058 69.2298 15.3863C69.3664 15.4472 69.4951 15.5245 69.613 15.6165C69.7336 15.7123 69.8429 15.8218 69.9386 15.9426C70.0449 16.0826 70.1409 16.23 70.226 16.3838C70.3225 16.5646 70.4094 16.7503 70.4865 16.9402L71.2221 18.6629C71.2911 18.8356 71.3371 18.9622 71.36 19.0466C71.3713 19.1061 71.3764 19.1665 71.3754 19.227ZM69.0766 13.2875C69.0848 13.0305 69.0169 12.7768 68.8812 12.5585C68.7274 12.3441 68.4992 12.195 68.2414 12.1403C68.1394 12.1149 68.0356 12.0969 67.931 12.0866C67.7732 12.0705 67.6146 12.0641 67.456 12.0674H66.659V14.546H67.5632C67.7876 14.5502 68.0113 14.5191 68.226 14.4539C68.399 14.4013 68.5594 14.3138 68.6973 14.1968C68.8213 14.0928 68.9197 13.9615 68.9846 13.8132C69.0534 13.6465 69.0886 13.4678 69.0881 13.2875H69.0766Z" fill="#1A171B"/>
  <path d="M77.9423 16.8328C77.9505 17.25 77.8626 17.6636 77.6856 18.0414C77.5216 18.3805 77.2832 18.6782 76.9883 18.9123C76.6831 19.1514 76.3344 19.3286 75.9616 19.4341C75.555 19.5547 75.1328 19.6142 74.7087 19.6106C74.4261 19.613 74.1439 19.5886 73.8658 19.5377C73.6333 19.4938 73.4041 19.4335 73.18 19.3574C73.0092 19.2992 72.8438 19.226 72.6858 19.1387C72.5819 19.0832 72.4854 19.0149 72.3985 18.9354C72.3346 18.8637 72.291 18.7763 72.272 18.6821C72.2452 18.5237 72.2337 18.3631 72.2376 18.2025C72.2376 18.0644 72.2376 17.9454 72.2376 17.8534C72.2435 17.775 72.2589 17.6977 72.2835 17.6232C72.2972 17.5739 72.3252 17.5298 72.364 17.4965C72.3991 17.4732 72.4406 17.4611 72.4828 17.462C72.5793 17.4744 72.6707 17.5128 72.7471 17.5733C72.8908 17.663 73.0391 17.745 73.1915 17.8188C73.3981 17.9204 73.6135 18.0026 73.8352 18.0644C74.1168 18.144 74.4085 18.1815 74.7011 18.1757C74.8979 18.1797 75.0943 18.1538 75.2834 18.0989C75.4421 18.056 75.5907 17.9816 75.7202 17.8802C75.8386 17.7869 75.932 17.6656 75.9922 17.5272C76.056 17.3808 76.0886 17.2227 76.088 17.063C76.0935 16.8789 76.0353 16.6986 75.9232 16.5527C75.8064 16.4009 75.6637 16.271 75.5018 16.169C75.3162 16.0523 75.1215 15.9509 74.9195 15.8659C74.6972 15.7699 74.4712 15.6664 74.2375 15.5589C74.0023 15.4456 73.7745 15.3174 73.5555 15.1752C73.3371 15.0381 73.1386 14.8716 72.9655 14.6803C72.7871 14.4798 72.6445 14.2501 72.5441 14.0012C72.4286 13.7015 72.3726 13.3822 72.3793 13.0611C72.3726 12.6798 72.4525 12.302 72.613 11.9561C72.7599 11.6483 72.9747 11.378 73.2413 11.1657C73.5178 10.9489 73.8342 10.7885 74.1724 10.6938C74.5463 10.5884 74.9333 10.5367 75.3217 10.5403C75.7292 10.5401 76.1345 10.5995 76.5248 10.7168C76.6887 10.7648 76.8488 10.8251 77.0037 10.8971C77.1034 10.9395 77.1964 10.9964 77.2795 11.066C77.3157 11.0995 77.3467 11.1383 77.3715 11.1811C77.3907 11.2214 77.4049 11.2639 77.4136 11.3077C77.4269 11.3721 77.4345 11.4376 77.4366 11.5034C77.4366 11.5801 77.4366 11.6799 77.4366 11.7988C77.4366 11.9177 77.4366 12.0367 77.4366 12.1288C77.4312 12.2038 77.4197 12.2782 77.4021 12.3513C77.3921 12.3994 77.3681 12.4434 77.3332 12.4779C77.3184 12.4931 77.3004 12.5048 77.2805 12.5121C77.2606 12.5194 77.2393 12.5221 77.2182 12.5201C77.1325 12.5077 77.051 12.4748 76.9807 12.4242C76.8734 12.3628 76.7393 12.2938 76.5976 12.2209C76.4208 12.1383 76.2375 12.0703 76.0497 12.0175C75.828 11.954 75.5983 11.923 75.3677 11.9254C75.1966 11.9225 75.0261 11.9458 74.862 11.9945C74.7303 12.0374 74.6081 12.1051 74.5018 12.194C74.4071 12.2748 74.3335 12.3775 74.2873 12.4933C74.2367 12.6147 74.2119 12.7454 74.2145 12.877C74.2106 13.0572 74.2658 13.2337 74.3716 13.3796C74.4889 13.5323 74.633 13.6623 74.7968 13.7633C74.9904 13.8822 75.1928 13.9861 75.4022 14.0741C75.6282 14.17 75.8581 14.2736 76.0918 14.381C76.3291 14.4951 76.5594 14.6232 76.7814 14.7647C77.003 14.9007 77.2042 15.0673 77.3791 15.2596C77.7747 15.6936 77.9863 16.2646 77.9691 16.8519L77.9423 16.8328Z" fill="#1A171B"/>
  <path d="M85.2639 13.3643C85.272 13.8099 85.194 14.2529 85.034 14.6688C84.89 15.0354 84.6616 15.3627 84.3674 15.6242C84.0537 15.8944 83.687 16.0957 83.2908 16.2151C82.8024 16.3605 82.2945 16.4291 81.7851 16.4184H81.0495V19.2117C81.0489 19.256 81.0342 19.2991 81.0073 19.3344C80.9668 19.3754 80.9168 19.4058 80.8617 19.4227C80.7729 19.4488 80.6818 19.4668 80.5897 19.4764C80.4468 19.4836 80.3036 19.4836 80.1606 19.4764C79.9882 19.4764 79.8465 19.4764 79.7315 19.4764C79.6382 19.4666 79.5459 19.4487 79.4557 19.4227C79.4012 19.4068 79.3522 19.3763 79.3139 19.3344C79.2882 19.2987 79.2748 19.2557 79.2756 19.2117V11.3423C79.2684 11.2558 79.2793 11.1689 79.3077 11.0869C79.3361 11.005 79.3812 10.9299 79.4403 10.8665C79.4982 10.8122 79.5663 10.77 79.6406 10.7423C79.715 10.7147 79.794 10.7021 79.8733 10.7053H81.9345C82.1414 10.7053 82.3368 10.7053 82.5245 10.7284C82.7496 10.7514 82.9734 10.786 83.195 10.832C83.4736 10.8871 83.7422 10.9842 83.9919 11.1197C84.254 11.2498 84.4892 11.4281 84.6854 11.6454C84.8803 11.869 85.0276 12.1301 85.1183 12.4127C85.2194 12.7196 85.2686 13.0412 85.2639 13.3643ZM83.4057 13.4909C83.4174 13.2256 83.3621 12.9617 83.2448 12.7235C83.1582 12.5452 83.026 12.393 82.8617 12.2823C82.7104 12.191 82.5423 12.131 82.3674 12.1058C82.1886 12.0793 82.008 12.0664 81.8272 12.0674H81.061V15.0372H81.8579C82.1005 15.0444 82.3424 15.0053 82.5705 14.922C82.7501 14.8542 82.9105 14.7435 83.0379 14.5997C83.1634 14.4553 83.2586 14.2869 83.3176 14.1048C83.3794 13.9061 83.4104 13.699 83.4095 13.4909H83.4057Z" fill="#1A171B"/>
  <path d="M88.2483 19.2117C88.2482 19.2568 88.2319 19.3004 88.2023 19.3344C88.1631 19.377 88.1126 19.4076 88.0567 19.4227C87.9692 19.4488 87.8794 19.4668 87.7885 19.4764C87.6736 19.4764 87.5318 19.4764 87.3556 19.4764C87.1794 19.4764 87.0414 19.4764 86.9265 19.4764C86.8343 19.4671 86.7433 19.4491 86.6545 19.4227C86.599 19.4067 86.5487 19.3763 86.5089 19.3344C86.4793 19.3004 86.463 19.2568 86.4629 19.2117V10.9509C86.4623 10.9057 86.4787 10.8618 86.5089 10.8281C86.5503 10.7863 86.6017 10.7559 86.6583 10.7399C86.7473 10.7142 86.8383 10.6963 86.9303 10.6862C87.072 10.679 87.2139 10.679 87.3556 10.6862C87.5318 10.6862 87.6736 10.6862 87.7885 10.6862C87.8794 10.6958 87.9692 10.7138 88.0567 10.7399C88.1126 10.7549 88.1631 10.7855 88.2023 10.8281C88.2325 10.8618 88.2489 10.9057 88.2483 10.9509V19.2117Z" fill="#1A171B"/>
  <path d="M95.9609 11.4381C95.9609 11.5686 95.9609 11.6798 95.9609 11.7719C95.9525 11.8481 95.9345 11.9229 95.9072 11.9945C95.8898 12.0429 95.8608 12.0863 95.8229 12.1211C95.7919 12.1471 95.7523 12.1608 95.7118 12.1594H93.5242V19.2116C93.5255 19.2563 93.5105 19.2999 93.482 19.3344C93.4422 19.3762 93.3919 19.4066 93.3364 19.4226C93.2476 19.4487 93.1565 19.4667 93.0644 19.4763C92.9495 19.4763 92.8039 19.4763 92.6353 19.4763C92.4667 19.4763 92.3211 19.4763 92.2062 19.4763C92.1129 19.4666 92.0205 19.4486 91.9304 19.4226C91.8699 19.4045 91.8165 19.3683 91.7771 19.319C91.7476 19.2849 91.7312 19.2414 91.7311 19.1962V12.1594H89.5435C89.5018 12.161 89.4609 12.1474 89.4285 12.1211C89.3931 12.085 89.3657 12.0418 89.3481 11.9945C89.3223 11.9226 89.3056 11.8479 89.2983 11.7719C89.2914 11.6608 89.2914 11.5493 89.2983 11.4381C89.2912 11.3231 89.2912 11.2078 89.2983 11.0928C89.3047 11.0155 89.3215 10.9393 89.3481 10.8664C89.3647 10.8196 89.3923 10.7775 89.4285 10.7436C89.4618 10.719 89.5021 10.7055 89.5435 10.7053H95.7003C95.7406 10.7056 95.7796 10.719 95.8114 10.7436C95.8502 10.7761 95.8794 10.8185 95.8957 10.8664C95.9239 10.9391 95.9419 11.0152 95.9494 11.0928C95.9532 11.1849 95.9609 11.3 95.9609 11.4381Z" fill="#1A171B"/>
  <path d="M103.271 18.7934C103.315 18.9186 103.349 19.0468 103.374 19.1771C103.382 19.2146 103.382 19.2534 103.372 19.2907C103.363 19.3279 103.345 19.3625 103.321 19.3919C103.244 19.4485 103.152 19.4794 103.056 19.4802C102.93 19.4802 102.758 19.4802 102.535 19.4802C102.313 19.4802 102.129 19.4802 101.999 19.4802C101.9 19.4789 101.801 19.466 101.704 19.4418C101.649 19.4286 101.6 19.3992 101.562 19.3574C101.532 19.3143 101.51 19.2662 101.497 19.2154L100.911 17.4581H97.6275L97.0758 19.1694C97.0601 19.2254 97.0355 19.2785 97.003 19.3267C96.9671 19.3738 96.9176 19.4086 96.8612 19.4264C96.7724 19.4572 96.6794 19.474 96.5854 19.4763C96.4666 19.4763 96.3095 19.4763 96.1141 19.4763C95.9187 19.4763 95.731 19.4763 95.6276 19.4763C95.5379 19.4724 95.4525 19.4371 95.3862 19.3766C95.3621 19.3462 95.3454 19.3106 95.3374 19.2727C95.3294 19.2347 95.3304 19.1954 95.3402 19.1579C95.3607 19.027 95.3941 18.8985 95.4398 18.7742L98.1217 11.0122C98.1426 10.9456 98.175 10.8833 98.2175 10.8281C98.2617 10.7743 98.3223 10.7366 98.3899 10.7206C98.4958 10.6898 98.6053 10.6731 98.7156 10.6707H99.2711H99.9071C100.03 10.6727 100.152 10.6894 100.271 10.7206C100.345 10.7356 100.413 10.7747 100.463 10.8319C100.507 10.8934 100.539 10.9622 100.558 11.0352L103.271 18.7934ZM99.2788 12.3781L98.0413 16.0961H100.52L99.2788 12.3781Z" fill="#1A171B"/>
  <path d="M109.263 18.7128C109.263 18.8269 109.257 18.941 109.244 19.0543C109.236 19.1327 109.219 19.2099 109.194 19.2845C109.177 19.3345 109.148 19.3794 109.11 19.4149C109.076 19.4412 109.034 19.4548 108.991 19.4533H104.987C104.848 19.4592 104.711 19.4127 104.604 19.3229C104.55 19.2663 104.508 19.1985 104.482 19.1244C104.457 19.0502 104.447 18.9713 104.455 18.8931V10.9508C104.455 10.9064 104.469 10.8631 104.497 10.8281C104.537 10.7871 104.587 10.7567 104.642 10.7398C104.733 10.7138 104.825 10.6959 104.918 10.6861C105.033 10.6861 105.175 10.6861 105.343 10.6861C105.488 10.6788 105.632 10.6788 105.776 10.6861C105.869 10.6957 105.96 10.7137 106.048 10.7398C106.104 10.7567 106.154 10.7871 106.194 10.8281C106.221 10.8631 106.236 10.9064 106.236 10.9508V17.9876H108.983C109.026 17.9862 109.068 17.9997 109.102 18.026C109.142 18.0577 109.171 18.1004 109.186 18.1488C109.213 18.2205 109.229 18.2953 109.236 18.3713C109.252 18.4845 109.261 18.5985 109.263 18.7128Z" fill="#1A171B"/>
  <path d="M34.7408 31.9386C34.7408 32.069 34.7408 32.1803 34.7408 32.2685C34.7325 32.3447 34.7144 32.4195 34.6872 32.4911C34.6708 32.5378 34.6416 32.5791 34.6029 32.61C34.5702 32.6322 34.5312 32.6429 34.4918 32.6407H29.3272C29.2508 32.6458 29.1741 32.6348 29.1022 32.6083C29.0302 32.5819 28.9646 32.5406 28.9096 32.4872C28.8062 32.36 28.7555 32.198 28.7678 32.0345V31.7352C28.7616 31.6535 28.7616 31.5714 28.7678 31.4897C28.7948 31.321 28.8547 31.1593 28.9441 31.0139C28.9939 30.9218 29.059 30.8144 29.1356 30.6877L32.5263 25.3161H29.1625C29.1138 25.3163 29.0661 25.303 29.0245 25.2778C28.983 25.247 28.95 25.206 28.9288 25.1588C28.9014 25.0899 28.8834 25.0177 28.8751 24.944C28.8685 24.8354 28.8685 24.7264 28.8751 24.6178C28.8684 24.5041 28.8684 24.3901 28.8751 24.2764C28.8835 24.2002 28.9015 24.1254 28.9288 24.0538C28.9479 24.0054 28.9813 23.9639 29.0245 23.9349C29.0665 23.911 29.1142 23.899 29.1625 23.9003H33.9899C34.0637 23.8944 34.138 23.904 34.2079 23.9284C34.2778 23.9529 34.3419 23.9917 34.396 24.0423C34.4861 24.1494 34.5338 24.286 34.5301 24.426V24.7598C34.5306 24.8637 34.5242 24.9675 34.5109 25.0706C34.4999 25.1579 34.4807 25.244 34.4535 25.3277C34.4219 25.4168 34.3821 25.5029 34.3347 25.5847C34.2849 25.673 34.2198 25.7804 34.1431 25.8993L30.8252 31.2134H34.4765C34.5633 31.2134 34.6284 31.2671 34.6719 31.3745C34.7286 31.5569 34.752 31.7479 34.7408 31.9386Z" fill="#1A171B"/>
  <path d="M42.9322 29.3831C42.9407 29.8729 42.8615 30.3602 42.6984 30.822C42.5514 31.23 42.3129 31.5989 42.0012 31.9001C41.6721 32.2052 41.2795 32.4332 40.8518 32.5677C40.3507 32.7293 39.8264 32.8071 39.3001 32.7979C38.7995 32.8048 38.3007 32.735 37.8212 32.5908C37.4102 32.4676 37.0319 32.2539 36.714 31.9653C36.405 31.6762 36.1675 31.3189 36.0205 30.9217C35.8539 30.4514 35.7735 29.9549 35.783 29.456V24.1382C35.7816 24.0941 35.7951 24.0508 35.8213 24.0154C35.8612 23.9736 35.9114 23.9431 35.9669 23.9271C36.0572 23.9015 36.1494 23.8835 36.2427 23.8734C36.3852 23.8579 36.5285 23.8515 36.6718 23.8542C36.8151 23.8516 36.9584 23.858 37.1009 23.8734C37.1917 23.8834 37.2815 23.9014 37.3691 23.9271C37.4246 23.9431 37.4749 23.9736 37.5147 24.0154C37.542 24.0505 37.5569 24.0937 37.5569 24.1382V29.2949C37.552 29.6005 37.596 29.9049 37.6871 30.1966C37.7639 30.4346 37.8951 30.6513 38.0703 30.8296C38.2302 30.9997 38.4267 31.1309 38.645 31.2133C38.8837 31.2972 39.1352 31.3388 39.3882 31.3361C39.6493 31.342 39.9091 31.299 40.1545 31.2095C40.368 31.1264 40.5594 30.9951 40.7138 30.8258C40.8737 30.6495 40.9951 30.4417 41.0701 30.2157C41.1552 29.9505 41.1966 29.6732 41.1928 29.3946V24.1382C41.1927 24.0937 41.2076 24.0505 41.2349 24.0154C41.2725 23.9727 41.3218 23.9421 41.3767 23.9271C41.4655 23.901 41.5566 23.8831 41.6487 23.8734C41.7912 23.858 41.9345 23.8516 42.0778 23.8542C42.2185 23.8515 42.3593 23.8579 42.4992 23.8734C42.59 23.8834 42.6798 23.9014 42.7674 23.9271C42.8218 23.943 42.8708 23.9736 42.9092 24.0154C42.9354 24.0508 42.9489 24.0941 42.9475 24.1382L42.9322 29.3831ZM38.7675 22.2696C38.7923 22.5062 38.7266 22.7434 38.5836 22.9334C38.3809 23.0831 38.129 23.1503 37.8787 23.1214C37.6296 23.1495 37.3789 23.0853 37.1737 22.9411C37.0535 22.7441 36.99 22.5177 36.99 22.2869C36.99 22.056 37.0535 21.8297 37.1737 21.6327C37.3762 21.4853 37.626 21.4183 37.8749 21.4447C38.1252 21.416 38.3773 21.4802 38.5836 21.625C38.725 21.8084 38.7909 22.0391 38.7675 22.2696ZM41.7176 22.2696C41.7433 22.5069 41.676 22.7448 41.5299 22.9334C41.3256 23.083 41.0726 23.1501 40.8211 23.1214C40.5744 23.1505 40.3257 23.0862 40.1238 22.9411C39.9831 22.7575 39.9186 22.5265 39.9438 22.2965C39.9182 22.0598 39.984 21.8223 40.1277 21.6327C40.3313 21.4847 40.5825 21.4177 40.8326 21.4447C41.0817 21.4166 41.3324 21.4808 41.5376 21.625C41.6776 21.809 41.742 22.0396 41.7176 22.2696Z" fill="#1A171B"/>
  <path d="M51.2497 32.4142C51.2512 32.4568 51.242 32.499 51.2229 32.537C51.193 32.5802 51.1478 32.6104 51.0965 32.6214C50.9992 32.6491 50.8988 32.6645 50.7976 32.6675C50.6674 32.6675 50.4911 32.6675 50.2651 32.6675C50.0391 32.6675 49.9241 32.6675 49.813 32.6675C49.7216 32.6645 49.6312 32.6477 49.5448 32.6176C49.4904 32.602 49.4422 32.5698 49.4069 32.5255C49.3769 32.4824 49.3549 32.4344 49.3418 32.3835L48.5564 30.4459C48.4644 30.2272 48.3686 30.0315 48.2805 29.8589C48.2 29.7032 48.0996 29.5587 47.9817 29.4292C47.8743 29.3155 47.7436 29.2264 47.5985 29.1682C47.4396 29.1075 47.2706 29.0776 47.1005 29.08H46.5449V32.4142C46.5444 32.4586 46.5296 32.5017 46.5028 32.537C46.4623 32.578 46.4123 32.6083 46.3572 32.6253C46.2683 32.6514 46.1773 32.6693 46.0852 32.679C45.9426 32.6926 45.7993 32.699 45.6561 32.6982C45.4837 32.6982 45.3419 32.6982 45.227 32.679C45.1336 32.6692 45.0413 32.6512 44.9511 32.6253C44.8967 32.6094 44.8477 32.5788 44.8094 32.537C44.7837 32.5013 44.7702 32.4582 44.771 32.4142V24.4719C44.7635 24.3938 44.773 24.3149 44.7988 24.2407C44.8246 24.1665 44.8661 24.0988 44.9205 24.0422C45.0267 23.9506 45.1635 23.9027 45.3036 23.9079H47.5641C47.7939 23.9079 47.9855 23.9079 48.1311 23.9079C48.2767 23.9079 48.4146 23.9079 48.5372 23.9424C48.864 23.985 49.1836 24.0715 49.4873 24.1995C49.7533 24.3106 49.9953 24.4722 50.2 24.6753C50.3994 24.871 50.5537 25.108 50.6521 25.3698C50.7596 25.6659 50.8116 25.9794 50.8053 26.2944C50.8095 26.5659 50.7721 26.8363 50.6942 27.0963C50.6248 27.3289 50.5145 27.5472 50.3685 27.7409C50.2187 27.9335 50.0389 28.1006 49.836 28.2359C49.6099 28.3788 49.3666 28.4922 49.1119 28.5735C49.2484 28.6344 49.3771 28.7117 49.495 28.8037C49.6157 28.8996 49.7249 29.009 49.8207 29.1299C49.9269 29.269 50.0218 29.4166 50.1042 29.5711C50.2043 29.7506 50.2926 29.9365 50.3685 30.1275L51.1041 31.8502C51.1563 31.9754 51.2011 32.1035 51.2382 32.2339C51.2495 32.2933 51.2534 32.3539 51.2497 32.4142ZM48.951 26.4748C48.9592 26.2178 48.8912 25.9641 48.7556 25.7458C48.6009 25.5306 48.3712 25.3813 48.1119 25.3276C48.0113 25.3018 47.9088 25.2838 47.8054 25.2738C47.6477 25.2562 47.489 25.2485 47.3303 25.2508H46.5334V27.7333H47.4376C47.662 27.7375 47.8857 27.7064 48.1004 27.6412C48.274 27.5901 48.4347 27.5025 48.5717 27.3841C48.6956 27.2809 48.7928 27.1493 48.8552 27.0004C48.9273 26.8346 48.9638 26.6556 48.9625 26.4748H48.951Z" fill="#1A171B"/>
  <path d="M54.261 32.3989C54.2605 32.4433 54.2457 32.4864 54.2189 32.5217C54.1784 32.5627 54.1284 32.593 54.0733 32.61C53.9844 32.6361 53.8934 32.654 53.8013 32.6637C53.6574 32.6773 53.5129 32.6838 53.3684 32.6829C53.1998 32.6829 53.058 32.6829 52.9431 32.6637C52.8497 32.6539 52.7574 32.6359 52.6672 32.61C52.6122 32.593 52.5621 32.5627 52.5216 32.5217C52.4948 32.4864 52.48 32.4433 52.4795 32.3989V24.1382C52.4795 24.0937 52.4943 24.0505 52.5216 24.0154C52.563 23.9736 52.6145 23.9432 52.6711 23.9272C52.7613 23.9012 52.8536 23.8832 52.9469 23.8734C53.0868 23.858 53.2276 23.8516 53.3684 23.8543C53.5129 23.8514 53.6575 23.8578 53.8013 23.8734C53.8934 23.8831 53.9844 23.9011 54.0733 23.9272C54.1284 23.9441 54.1784 23.9744 54.2189 24.0154C54.2462 24.0505 54.2611 24.0937 54.261 24.1382V32.3989Z" fill="#1A171B"/>
  <path d="M62.1727 31.3169C62.1727 31.4282 62.1727 31.5241 62.1727 31.6047C62.1661 31.673 62.1558 31.7409 62.142 31.8081C62.1301 31.8586 62.1121 31.9076 62.0884 31.9539C62.0562 32.0026 62.0203 32.0487 61.9811 32.092C61.8938 32.1699 61.7973 32.2369 61.6938 32.2915C61.5262 32.3825 61.352 32.4608 61.1727 32.5255C60.9439 32.6043 60.7095 32.6658 60.4716 32.7097C60.1897 32.7606 59.9036 32.785 59.6172 32.7826C59.0647 32.7905 58.5154 32.6969 57.9966 32.5064C57.5271 32.3311 57.1057 32.0471 56.7667 31.6776C56.4141 31.2814 56.1525 30.8125 56.0005 30.304C55.6289 29.0286 55.6383 27.6721 56.0273 26.4019C56.2013 25.8658 56.4829 25.3709 56.8549 24.9478C57.2089 24.5582 57.6464 24.2539 58.1345 24.0576C58.6571 23.8489 59.2155 23.7447 59.7781 23.7507C60.0144 23.7513 60.2502 23.7718 60.4831 23.812C60.6947 23.8512 60.9034 23.905 61.1076 23.9732C61.2857 24.0317 61.4576 24.1075 61.621 24.1996C61.7372 24.2582 61.8454 24.3317 61.9428 24.4183C61.9905 24.4632 62.0329 24.5134 62.0692 24.5679C62.0934 24.618 62.1115 24.6708 62.1229 24.7252C62.1229 24.7866 62.1459 24.8633 62.1535 24.9478C62.1612 25.0322 62.1535 25.1396 62.1535 25.2662C62.1535 25.3928 62.1535 25.5156 62.1535 25.6115C62.1465 25.69 62.1298 25.7674 62.1037 25.8417C62.0901 25.891 62.0621 25.9351 62.0233 25.9684C61.9941 25.9955 61.9558 26.0106 61.916 26.0106C61.8199 25.9994 61.7299 25.9577 61.6593 25.8916C61.5302 25.796 61.3959 25.7076 61.257 25.6269C61.0701 25.5209 60.8739 25.4323 60.6708 25.3621C60.4081 25.2801 60.1338 25.2412 59.8586 25.247C59.5411 25.2383 59.2264 25.3088 58.9428 25.4521C58.6592 25.5954 58.4157 25.8071 58.2341 26.0681C58.0314 26.3571 57.8833 26.6809 57.7973 27.0235C57.5956 27.8789 57.5956 28.7695 57.7973 29.6249C57.8826 29.9622 58.0365 30.2784 58.2494 30.5534C58.4376 30.7904 58.681 30.9775 58.9582 31.0982C59.2543 31.2215 59.5724 31.2829 59.8931 31.2786C60.1692 31.2833 60.4443 31.2458 60.7091 31.1673C60.9131 31.1027 61.1106 31.0192 61.2991 30.9179C61.4639 30.8297 61.6018 30.7452 61.7053 30.6762C61.7757 30.6179 61.8603 30.5795 61.9505 30.5649C61.9898 30.5635 62.0286 30.5742 62.0616 30.5956C62.0957 30.6222 62.1189 30.6604 62.1267 30.703C62.1487 30.7768 62.1629 30.8527 62.1688 30.9294C62.1688 31.0253 62.1727 31.1558 62.1727 31.3169Z" fill="#1A171B"/>
  <path d="M70.3221 32.3989C70.322 32.444 70.3057 32.4876 70.2762 32.5217C70.2369 32.5643 70.1865 32.5949 70.1306 32.6099C70.043 32.636 69.9532 32.654 69.8624 32.6636C69.721 32.6772 69.5791 32.6836 69.4371 32.6828C69.2609 32.6828 69.1153 32.6828 69.0003 32.6636C68.9094 32.6544 68.8196 32.6364 68.7322 32.6099C68.6777 32.594 68.6287 32.5635 68.5904 32.5217C68.5609 32.4876 68.5445 32.444 68.5444 32.3989V28.8652H65.2763V32.3989C65.2772 32.4429 65.2637 32.486 65.238 32.5217C65.2004 32.5643 65.1511 32.595 65.0963 32.6099C65.0086 32.6356 64.9189 32.6536 64.8281 32.6636C64.7131 32.6636 64.5714 32.6828 64.3951 32.6828C64.2189 32.6828 64.081 32.6828 63.966 32.6636C63.8727 32.6539 63.7804 32.6359 63.6902 32.6099C63.6358 32.594 63.5868 32.5635 63.5484 32.5217C63.5189 32.4876 63.5026 32.444 63.5025 32.3989V24.1382C63.5019 24.0929 63.5183 24.0491 63.5484 24.0154C63.5868 23.9735 63.6358 23.943 63.6902 23.9271C63.7804 23.9011 63.8727 23.8832 63.966 23.8734C64.2528 23.8478 64.5413 23.8478 64.8281 23.8734C64.9189 23.8834 65.0086 23.9014 65.0963 23.9271C65.1511 23.9421 65.2004 23.9727 65.238 24.0154C65.2642 24.0508 65.2778 24.0941 65.2763 24.1382V27.3496H68.5444V24.1382C68.5438 24.0929 68.5602 24.0491 68.5904 24.0154C68.6287 23.9735 68.6777 23.943 68.7322 23.9271C68.8196 23.9006 68.9094 23.8826 69.0003 23.8734C69.1454 23.8579 69.2913 23.8515 69.4371 23.8542C69.5791 23.8515 69.7212 23.8579 69.8624 23.8734C69.9532 23.883 70.043 23.901 70.1306 23.9271C70.1865 23.9422 70.2369 23.9728 70.2762 24.0154C70.3063 24.0491 70.3227 24.0929 70.3221 24.1382V32.3989Z" fill="#1A171B"/>
  <path d="M33.2428 4.88098C33.2474 5.16457 33.2006 5.44664 33.1049 5.71358C33.0239 5.94508 32.8931 6.15595 32.7218 6.33131C32.5484 6.50318 32.339 6.63424 32.1088 6.715C31.8439 6.80632 31.5651 6.85047 31.2851 6.84545C31.0244 6.84977 30.7651 6.80821 30.5188 6.72267C30.2967 6.64786 30.0939 6.52469 29.9249 6.36201C29.7522 6.19527 29.621 5.99025 29.5418 5.76346C29.4483 5.49737 29.4029 5.21673 29.4077 4.9347V1.76545C29.4038 1.74647 29.4038 1.72688 29.4077 1.7079C29.4225 1.69032 29.4427 1.67817 29.4652 1.67337C29.4969 1.66036 29.5306 1.65259 29.5648 1.65035C29.6741 1.63501 29.785 1.63501 29.8943 1.65035C29.9298 1.65264 29.9647 1.6604 29.9977 1.67337C30.0192 1.6781 30.0382 1.69035 30.0514 1.7079C30.057 1.72667 30.057 1.74668 30.0514 1.76545V4.83494C30.048 5.04422 30.0777 5.25272 30.1395 5.45267C30.1879 5.61682 30.2731 5.76773 30.3885 5.89391C30.4936 6.01122 30.6249 6.10194 30.7717 6.15865C30.9374 6.21903 31.1126 6.24893 31.2889 6.2469C31.4679 6.25112 31.646 6.22117 31.8138 6.15865C31.9596 6.10378 32.0908 6.01578 32.1969 5.90158C32.3073 5.77675 32.3907 5.63046 32.4421 5.47186C32.502 5.27683 32.5305 5.07347 32.5264 4.86947V1.76545C32.5208 1.74668 32.5208 1.72667 32.5264 1.7079C32.5404 1.69121 32.5591 1.67917 32.58 1.67337C32.6143 1.66001 32.6506 1.65224 32.6873 1.65035C32.7941 1.63523 32.9024 1.63523 33.0091 1.65035C33.0597 1.64563 33.1108 1.65219 33.1586 1.66953C33.1795 1.67533 33.1982 1.68737 33.2122 1.70406C33.2242 1.7209 33.2308 1.74095 33.2314 1.76161L33.2428 4.88098Z" fill="#1A171B"/>
  <path d="M38.3768 6.48858C38.3783 6.53482 38.3691 6.58079 38.3499 6.62287C38.3336 6.65694 38.3101 6.68705 38.281 6.71112C38.2537 6.73627 38.2209 6.75466 38.1852 6.76483C38.1495 6.76883 38.1136 6.76883 38.0779 6.76483H37.8557C37.7936 6.76598 37.7317 6.75823 37.6718 6.74181C37.6162 6.72643 37.5642 6.70037 37.5186 6.66508C37.4648 6.6189 37.4172 6.56604 37.3768 6.50777C37.32 6.42694 37.2688 6.34233 37.2235 6.25453L35.6719 3.35003C35.5876 3.20039 35.5071 3.04308 35.4228 2.8781C35.3386 2.71312 35.2658 2.5558 35.193 2.40233C35.193 2.59034 35.193 2.78601 35.193 2.98169C35.193 3.17737 35.193 3.36538 35.193 3.56873V6.63822C35.1981 6.65576 35.1981 6.67439 35.193 6.69193C35.1786 6.71072 35.1584 6.72421 35.1355 6.7303C35.1024 6.74327 35.0675 6.75103 35.0321 6.75332C34.9772 6.75814 34.9221 6.75814 34.8673 6.75332C34.8125 6.75783 34.7574 6.75783 34.7026 6.75332C34.6683 6.75151 34.6346 6.74373 34.603 6.7303C34.5812 6.72398 34.5623 6.71045 34.5493 6.69193C34.538 6.67618 34.5314 6.65757 34.5302 6.63822V1.95342C34.5258 1.91159 34.532 1.86935 34.548 1.8305C34.5641 1.79165 34.5895 1.75741 34.6221 1.73088C34.6771 1.68555 34.7463 1.6611 34.8175 1.66182H35.1508C35.2158 1.65498 35.2813 1.65498 35.3462 1.66182C35.397 1.67486 35.445 1.69696 35.488 1.72704C35.5353 1.7624 35.5767 1.80515 35.6106 1.85366C35.6489 1.90738 35.691 1.97644 35.737 2.05701L36.9324 4.29774L37.1431 4.68142C37.2121 4.80804 37.2772 4.93849 37.3423 5.06511C37.4074 5.19172 37.4688 5.3145 37.5301 5.44879L37.714 5.83248C37.714 5.62529 37.714 5.41043 37.714 5.18405C37.714 4.95768 37.714 4.74281 37.714 4.53562V1.77692C37.7145 1.7586 37.7212 1.741 37.7331 1.72704C37.7336 1.70571 37.7417 1.68526 37.7561 1.66949C37.7889 1.65509 37.8239 1.64602 37.8595 1.64263H38.0281H38.1852C38.2222 1.64561 38.2584 1.65469 38.2925 1.66949C38.3141 1.678 38.3327 1.69268 38.3461 1.7117C38.3517 1.72786 38.3517 1.74541 38.3461 1.76157L38.3768 6.48858Z" fill="#1A171B"/>
  <path d="M40.3574 6.65748C40.3627 6.67499 40.3627 6.69369 40.3574 6.7112C40.3521 6.72137 40.3445 6.73014 40.3351 6.73681C40.3258 6.74348 40.3151 6.74785 40.3037 6.74956C40.2706 6.76253 40.2357 6.7703 40.2003 6.77259C40.1455 6.77709 40.0904 6.77709 40.0355 6.77259C39.982 6.77697 39.9282 6.77697 39.8746 6.77259C39.8379 6.7707 39.8016 6.76292 39.7673 6.74956C39.7563 6.7471 39.7458 6.74244 39.7366 6.73585C39.7274 6.72926 39.7196 6.72087 39.7137 6.7112C39.7081 6.69373 39.7081 6.67495 39.7137 6.65748V1.76549C39.7081 1.74672 39.7081 1.7267 39.7137 1.70793C39.7302 1.69049 39.7516 1.67845 39.775 1.6734C39.8081 1.66044 39.843 1.65267 39.8785 1.65038C39.9307 1.646 39.9833 1.646 40.0355 1.65038C40.0904 1.64588 40.1455 1.64588 40.2003 1.65038C40.2357 1.65267 40.2706 1.66044 40.3037 1.6734C40.3145 1.6752 40.3249 1.67918 40.3341 1.68512C40.3433 1.69106 40.3512 1.69882 40.3574 1.70793C40.3628 1.72673 40.3628 1.74669 40.3574 1.76549V6.65748Z" fill="#1A171B"/>
  <path d="M43.771 6.6574C43.7625 6.68338 43.748 6.70702 43.7288 6.72646C43.7068 6.74703 43.6807 6.76272 43.6522 6.77251H43.5258H43.3342H43.181H43.0699H42.9894L42.9319 6.74949C42.9182 6.73768 42.9054 6.72485 42.8936 6.71112L42.8706 6.6574L41.204 1.90354C41.1836 1.85886 41.1719 1.81067 41.1696 1.76157C41.1643 1.74456 41.1649 1.72631 41.1711 1.70965C41.1774 1.69299 41.1889 1.67887 41.204 1.66949C41.2368 1.64716 41.2755 1.63514 41.3151 1.63496H41.5297H41.7059C41.7399 1.63863 41.7734 1.64636 41.8055 1.65798C41.8272 1.66649 41.8458 1.68117 41.8592 1.70018C41.8731 1.72058 41.8846 1.74246 41.8937 1.76541L43.3534 6.06269L44.7748 1.77308C44.7818 1.74813 44.7908 1.72376 44.8016 1.70018C44.8169 1.68144 44.8366 1.66692 44.8591 1.65798C44.8951 1.64612 44.9324 1.6384 44.9702 1.63496H45.1579C45.2217 1.63003 45.2857 1.63003 45.3495 1.63496C45.3854 1.63602 45.4202 1.64807 45.4491 1.66949C45.4595 1.69533 45.4595 1.72422 45.4491 1.75006C45.4412 1.79856 45.4283 1.84613 45.4108 1.89203L43.771 6.6574Z" fill="#1A171B"/>
  <path d="M49.1274 6.4886C49.1317 6.52941 49.1317 6.57057 49.1274 6.61138C49.1255 6.64249 49.1163 6.67271 49.1006 6.69963C49.0907 6.72155 49.0747 6.74018 49.0546 6.75334C49.0369 6.75719 49.0186 6.75719 49.001 6.75334H46.5528C46.4903 6.7517 46.4299 6.7302 46.3804 6.69195C46.3515 6.66465 46.3292 6.6311 46.3153 6.59386C46.3013 6.55662 46.2961 6.51668 46.2999 6.47709V1.93809C46.2955 1.89846 46.3005 1.85834 46.3144 1.82101C46.3284 1.78367 46.351 1.75017 46.3804 1.72323C46.429 1.68344 46.49 1.66175 46.5528 1.66184H48.9703C48.9892 1.65742 49.0089 1.65742 49.0278 1.66184C49.0475 1.67446 49.0623 1.69339 49.0699 1.71555C49.0828 1.74364 49.0918 1.77331 49.0967 1.8038C49.0992 1.84725 49.0992 1.8908 49.0967 1.93425C49.0989 1.97643 49.0989 2.01869 49.0967 2.06087C49.0911 2.08995 49.0821 2.11827 49.0699 2.14528C49.0614 2.16588 49.0467 2.18332 49.0278 2.19516C49.0091 2.20131 48.989 2.20131 48.9703 2.19516H46.9512V3.79897H48.66C48.6786 3.79282 48.6988 3.79282 48.7175 3.79897C48.7356 3.81272 48.7512 3.82961 48.7634 3.84884C48.7765 3.87656 48.7843 3.9065 48.7864 3.93709C48.7907 3.98047 48.7907 4.02417 48.7864 4.06754C48.7906 4.10836 48.7906 4.1495 48.7864 4.19032C48.7839 4.2184 48.7761 4.24574 48.7634 4.2709C48.7532 4.29064 48.7372 4.30673 48.7175 4.31694C48.6985 4.32136 48.6789 4.32136 48.66 4.31694H46.9512V6.14329H48.9741C48.9916 6.1377 49.0103 6.1377 49.0278 6.14329C49.0485 6.15402 49.0647 6.17167 49.0738 6.19316C49.09 6.21841 49.0993 6.24755 49.1006 6.27758C49.1207 6.34604 49.1297 6.41728 49.1274 6.4886Z" fill="#1A171B"/>
  <path d="M53.4872 6.65746C53.4911 6.67514 53.4911 6.69349 53.4872 6.71117C53.4815 6.72143 53.4738 6.73044 53.4646 6.73769C53.4554 6.74493 53.4448 6.75027 53.4335 6.75338L53.3224 6.7764H53.1347H52.9661C52.9308 6.77116 52.8961 6.76216 52.8627 6.74954C52.8376 6.73967 52.8161 6.72224 52.8014 6.69966C52.7848 6.67615 52.7719 6.65028 52.763 6.62293L52.2956 5.41815C52.246 5.28687 52.1884 5.15873 52.1232 5.03447C52.069 4.92544 51.9979 4.82573 51.9125 4.73903C51.8315 4.65426 51.7336 4.58758 51.6252 4.54335C51.503 4.49616 51.373 4.47272 51.242 4.47429H50.7823V6.65746C50.7891 6.67471 50.7891 6.69392 50.7823 6.71117C50.7764 6.72085 50.7686 6.72924 50.7594 6.73583C50.7501 6.74242 50.7397 6.74708 50.7286 6.74954C50.6958 6.76341 50.6608 6.77121 50.6252 6.77257C50.5717 6.77724 50.5178 6.77724 50.4643 6.77257C50.4095 6.77723 50.3543 6.77723 50.2995 6.77257C50.2641 6.77028 50.2292 6.76251 50.1961 6.74954C50.1727 6.74472 50.1521 6.73096 50.1386 6.71117C50.1348 6.69347 50.1348 6.67516 50.1386 6.65746V1.93812C50.1342 1.8985 50.1392 1.85838 50.1531 1.82104C50.1671 1.7837 50.1897 1.7502 50.2191 1.72326C50.2677 1.68347 50.3287 1.66178 50.3915 1.66187H51.4757C51.6034 1.66187 51.7107 1.66187 51.7976 1.66187H52.0274C52.2077 1.69127 52.3831 1.7455 52.5485 1.82302C52.6922 1.89211 52.8221 1.98705 52.9316 2.10311C53.0331 2.21429 53.1113 2.34477 53.1615 2.48679C53.2154 2.64213 53.2414 2.80582 53.2381 2.97024C53.2394 3.1261 53.2174 3.28128 53.173 3.43066C53.1272 3.56083 53.0584 3.6817 52.9699 3.78749C52.8822 3.8948 52.7773 3.98685 52.6596 4.05991C52.5315 4.13821 52.3953 4.20253 52.2535 4.25175C52.3352 4.28866 52.4124 4.33501 52.4834 4.38987C52.5539 4.45105 52.618 4.51918 52.6749 4.59323C52.7367 4.68042 52.793 4.7714 52.8435 4.86565C52.8933 4.96924 52.9469 5.08435 53.0006 5.2148L53.4565 6.339C53.4948 6.43492 53.5178 6.50015 53.5293 6.53852C53.5194 6.57952 53.5053 6.61938 53.4872 6.65746ZM52.4642 3.07C52.4713 2.89153 52.4245 2.71506 52.3301 2.56353C52.2218 2.41273 52.0625 2.30639 51.8818 2.26426C51.8088 2.24614 51.7345 2.23332 51.6596 2.22589C51.5753 2.22589 51.4681 2.22589 51.334 2.22589H50.7823V3.9448H51.4451C51.6018 3.94821 51.7582 3.9275 51.9087 3.88341C52.0271 3.84415 52.1366 3.78153 52.2305 3.69924C52.3163 3.62611 52.3822 3.53239 52.4221 3.42683C52.4584 3.31423 52.4727 3.19569 52.4642 3.07767V3.07Z" fill="#1A171B"/>
  <path d="M57.2953 5.33369C57.3001 5.55433 57.2556 5.77325 57.1651 5.97444C57.0751 6.16012 56.9441 6.32283 56.7819 6.45021C56.6184 6.58284 56.4312 6.68311 56.2302 6.74565C56.009 6.81174 55.7791 6.84408 55.5483 6.84157C55.389 6.84206 55.2299 6.82793 55.0732 6.79937C54.9431 6.77255 54.8151 6.73665 54.6901 6.69193C54.5905 6.6574 54.4943 6.61373 54.4027 6.56148C54.3433 6.53192 54.289 6.49306 54.2418 6.44638C54.2093 6.41308 54.1856 6.37221 54.1728 6.32743C54.1573 6.26344 54.1508 6.19756 54.1537 6.13175C54.1493 6.08453 54.1493 6.03701 54.1537 5.98979C54.1558 5.95797 54.1636 5.92679 54.1767 5.89771C54.1792 5.88715 54.1839 5.87725 54.1905 5.86865C54.1971 5.86005 54.2054 5.85296 54.215 5.84783C54.2324 5.84225 54.2512 5.84225 54.2686 5.84783C54.3258 5.85543 54.3799 5.87792 54.4257 5.91305C54.5085 5.96757 54.5942 6.01752 54.6824 6.06269C54.8066 6.11996 54.9346 6.16867 55.0655 6.20849C55.2322 6.25739 55.4053 6.28068 55.5789 6.27756C55.7087 6.27699 55.8378 6.25761 55.962 6.22C56.0765 6.18417 56.1831 6.12688 56.2762 6.05118C56.3639 5.97933 56.4345 5.88892 56.4831 5.78644C56.5306 5.67223 56.554 5.54946 56.5521 5.42577C56.5575 5.29083 56.5228 5.15731 56.4525 5.04209C56.383 4.93718 56.2946 4.84611 56.1919 4.77351C56.0711 4.69023 55.9428 4.6183 55.8088 4.55864L55.3874 4.36296C55.2418 4.2939 55.1 4.221 54.9659 4.14043C54.8253 4.06312 54.6963 3.96624 54.5828 3.85266C54.4739 3.74123 54.3857 3.61132 54.3223 3.46898C54.2491 3.30098 54.2137 3.11888 54.2188 2.93566C54.2166 2.73996 54.2571 2.54616 54.3376 2.3678C54.4105 2.20392 54.5207 2.05939 54.6594 1.94575C54.8059 1.82868 54.9738 1.74136 55.1536 1.68868C55.3521 1.62719 55.5589 1.59741 55.7666 1.60043C55.8821 1.59983 55.9975 1.60882 56.1115 1.62729C56.2206 1.64598 56.3282 1.67291 56.4333 1.70786C56.5262 1.73586 56.616 1.77314 56.7015 1.81913C56.7577 1.84432 56.8105 1.87655 56.8586 1.91505C56.877 1.93395 56.8937 1.9545 56.9084 1.97644C56.9111 1.99424 56.9111 2.01236 56.9084 2.03016C56.9084 2.05318 56.9084 2.08004 56.9084 2.11073C56.9106 2.15163 56.9106 2.19261 56.9084 2.23351C56.9124 2.27562 56.9124 2.31802 56.9084 2.36013C56.9115 2.39074 56.9115 2.42159 56.9084 2.45221C56.9024 2.47423 56.8905 2.49416 56.8739 2.50976C56.8577 2.51532 56.8402 2.51532 56.8241 2.50976C56.7761 2.50154 56.7304 2.48323 56.69 2.45605C56.6287 2.41768 56.5521 2.37547 56.4639 2.32943C56.3621 2.2784 56.2556 2.23729 56.1459 2.20665C56.0117 2.1666 55.8722 2.14719 55.7322 2.1491C55.602 2.14449 55.4721 2.164 55.349 2.20665C55.2526 2.23754 55.1638 2.28854 55.0885 2.35629C55.021 2.41916 54.9686 2.49656 54.9353 2.58266C54.8995 2.67036 54.8813 2.76421 54.8816 2.85892C54.8745 2.99404 54.9093 3.12805 54.9812 3.2426C55.0495 3.34953 55.138 3.44207 55.2418 3.51502C55.3618 3.60059 55.4902 3.67386 55.6249 3.73372L56.0502 3.93324C56.1932 3.99974 56.335 4.07264 56.4754 4.15194C56.6143 4.2305 56.743 4.32586 56.8586 4.43586C56.9677 4.54788 57.0571 4.67762 57.1229 4.81955C57.2155 4.97704 57.2742 5.15216 57.2953 5.33369Z" fill="#1A171B"/>
  <path d="M58.9162 6.65746C58.9218 6.67493 58.9218 6.6937 58.9162 6.71117C58.9103 6.72085 58.9025 6.72924 58.8933 6.73583C58.8841 6.74242 58.8736 6.74708 58.8626 6.74954C58.8283 6.7629 58.792 6.77068 58.7553 6.77257C58.6485 6.78768 58.5402 6.78768 58.4335 6.77257C58.3967 6.77068 58.3605 6.7629 58.3262 6.74954C58.3028 6.74472 58.2822 6.73096 58.2687 6.71117C58.2649 6.69348 58.2649 6.67516 58.2687 6.65746V1.76547C58.2633 1.74667 58.2633 1.72671 58.2687 1.70791C58.2835 1.69034 58.3037 1.67819 58.3262 1.67338C58.3607 1.66089 58.3968 1.65314 58.4335 1.65036C58.4857 1.64582 58.5383 1.64582 58.5905 1.65036C58.6441 1.64569 58.6979 1.64569 58.7515 1.65036C58.7882 1.65225 58.8244 1.66003 58.8587 1.67338C58.8802 1.67812 58.8992 1.69036 58.9124 1.70791C58.918 1.72668 58.918 1.7467 58.9124 1.76547L58.9162 6.65746Z" fill="#1A171B"/>
  <path d="M63.5058 1.9535C63.5099 1.99688 63.5099 2.04057 63.5058 2.08395C63.5037 2.11455 63.4959 2.14448 63.4828 2.1722C63.4728 2.19307 63.4568 2.21046 63.4368 2.22208C63.4181 2.22823 63.398 2.22823 63.3793 2.22208H61.9464V6.65748C61.952 6.67495 61.952 6.69373 61.9464 6.7112C61.9339 6.73019 61.9148 6.74386 61.8928 6.74957C61.8585 6.76293 61.8223 6.7707 61.7855 6.77259C61.6788 6.7877 61.5704 6.7877 61.4637 6.77259C61.4269 6.7707 61.3907 6.76293 61.3564 6.74957C61.333 6.74474 61.3124 6.73098 61.2989 6.7112C61.2951 6.6935 61.2951 6.67518 61.2989 6.65748V2.23743H59.866C59.8474 2.24358 59.8272 2.24358 59.8086 2.23743C59.7907 2.22442 59.7763 2.20731 59.7664 2.18755C59.7551 2.15922 59.7473 2.12957 59.7434 2.0993C59.7281 2.01301 59.7281 1.92468 59.7434 1.83839C59.7473 1.80686 59.755 1.77593 59.7664 1.74631C59.7753 1.72487 59.7899 1.70629 59.8086 1.69259C59.8275 1.68817 59.8471 1.68817 59.866 1.69259H63.41C63.4289 1.68817 63.4485 1.68817 63.4674 1.69259C63.4884 1.70478 63.5046 1.72372 63.5134 1.74631C63.5265 1.77539 63.5343 1.80658 63.5364 1.83839C63.5296 1.87758 63.5193 1.9161 63.5058 1.9535Z" fill="#1A171B"/>
  <path d="M67.5787 6.52699C67.5948 6.57177 67.6063 6.61804 67.6132 6.66512C67.6142 6.68055 67.612 6.69602 67.6068 6.71056C67.6015 6.72509 67.5933 6.73836 67.5826 6.74953C67.5508 6.76791 67.5156 6.77966 67.4791 6.78406H67.2837H67.0883C67.0515 6.78947 67.0141 6.78947 66.9772 6.78406C66.9552 6.77835 66.9361 6.76468 66.9236 6.74569C66.9032 6.71861 66.8864 6.68894 66.8738 6.65744L66.437 5.4143H64.3183L63.916 6.65744C63.9083 6.67983 63.8966 6.70063 63.8815 6.71883C63.8663 6.73757 63.8465 6.7521 63.8241 6.76104C63.791 6.77479 63.7562 6.78383 63.7206 6.7879H63.5406C63.4781 6.79258 63.4153 6.79258 63.3528 6.7879C63.3157 6.78666 63.2798 6.77467 63.2494 6.75337C63.2397 6.74247 63.2323 6.7297 63.2277 6.71585C63.2231 6.70199 63.2213 6.68734 63.2226 6.67279C63.2249 6.6237 63.2366 6.5755 63.257 6.53083L64.9581 1.7808C64.9666 1.75367 64.981 1.72877 65.0003 1.7079C65.0225 1.68842 65.0486 1.67402 65.0769 1.66569C65.117 1.65441 65.158 1.6467 65.1995 1.64267H65.6056C65.6508 1.64684 65.6957 1.65454 65.7397 1.66569C65.7686 1.6745 65.795 1.69031 65.8163 1.71174C65.8368 1.73239 65.8525 1.75727 65.8623 1.78464L67.5787 6.52699ZM65.0041 0.733336C65.0159 0.842077 64.9872 0.951346 64.9236 1.04029C64.836 1.10336 64.7283 1.13203 64.621 1.12086C64.5135 1.13315 64.4055 1.10437 64.3183 1.04029C64.2579 0.952891 64.2307 0.846733 64.2417 0.741012C64.2296 0.634645 64.2584 0.527667 64.3221 0.441737C64.4093 0.377651 64.5174 0.348872 64.6248 0.361161C64.7304 0.350184 64.8364 0.377406 64.9236 0.4379C64.9868 0.522651 65.0155 0.628212 65.0041 0.733336ZM65.3872 2.34098L64.5099 4.88481H66.2838L65.3872 2.34098ZM66.6362 0.733336C66.648 0.842077 66.6193 0.951346 66.5558 1.04029C66.4671 1.10428 66.3579 1.133 66.2493 1.12086C66.1443 1.13232 66.0389 1.10353 65.9543 1.04029C65.9014 0.949424 65.8736 0.846158 65.8736 0.741012C65.8736 0.635866 65.9014 0.5326 65.9543 0.441737C66.0407 0.379252 66.147 0.350591 66.2531 0.361161C66.3611 0.350011 66.4696 0.37717 66.5596 0.4379C66.6181 0.524619 66.6439 0.629328 66.6324 0.733336H66.6362Z" fill="#1A171B"/>
  <path d="M71.1419 1.9535C71.1442 1.99695 71.1442 2.0405 71.1419 2.08395C71.137 2.11444 71.1279 2.14412 71.1151 2.1722C71.1052 2.19196 71.0908 2.20907 71.0729 2.22208C71.0541 2.22731 71.0343 2.22731 71.0155 2.22208H69.5826V6.65748C69.5864 6.67518 69.5864 6.6935 69.5826 6.7112C69.5691 6.73098 69.5485 6.74474 69.5251 6.74957C69.492 6.76253 69.4571 6.7703 69.4217 6.77259C69.3668 6.77725 69.3117 6.77725 69.2569 6.77259C69.2034 6.77697 69.1496 6.77697 69.096 6.77259C69.0593 6.7707 69.023 6.76292 68.9887 6.74957C68.9777 6.74711 68.9672 6.74244 68.958 6.73585C68.9488 6.72926 68.941 6.72087 68.9351 6.7112C68.9295 6.69373 68.9295 6.67495 68.9351 6.65748V2.23743H67.5022C67.4835 2.24358 67.4634 2.24358 67.4447 2.23743C67.4251 2.22652 67.4101 2.20877 67.4026 2.18755C67.3897 2.15946 67.3807 2.12978 67.3758 2.0993C67.3604 2.01301 67.3604 1.92468 67.3758 1.83839C67.3808 1.8067 67.3898 1.77576 67.4026 1.74631C67.4057 1.735 67.411 1.72442 67.4183 1.7152C67.4255 1.70598 67.4345 1.69829 67.4447 1.69259C67.4636 1.68817 67.4833 1.68817 67.5022 1.69259H71.0461C71.0651 1.68914 71.0846 1.68914 71.1036 1.69259C71.1223 1.70629 71.1369 1.72487 71.1457 1.74631C71.1585 1.77576 71.1675 1.8067 71.1726 1.83839C71.1642 1.87723 71.1539 1.91563 71.1419 1.9535Z" fill="#1A171B"/>
  <path d="M74.7128 5.33378C74.7176 5.55442 74.6731 5.77334 74.5826 5.97454C74.4926 6.16022 74.3616 6.32292 74.1994 6.4503C74.0359 6.58293 73.8487 6.6832 73.6477 6.74574C73.4265 6.81183 73.1966 6.84417 72.9658 6.84167C72.8064 6.84215 72.6474 6.82802 72.4907 6.79946C72.3606 6.77264 72.2326 6.73674 72.1076 6.69203C72.008 6.65749 71.9118 6.61382 71.8202 6.56157C71.7608 6.53201 71.7065 6.49315 71.6593 6.44647C71.6268 6.41318 71.6031 6.3723 71.5903 6.32753C71.5767 6.26322 71.5703 6.19758 71.5712 6.13185C71.5687 6.08456 71.5687 6.03717 71.5712 5.98988C71.5733 5.95807 71.5811 5.92688 71.5942 5.8978C71.6007 5.87718 71.6143 5.85952 71.6325 5.84792C71.6511 5.84177 71.6713 5.84177 71.6899 5.84792C71.7457 5.85649 71.7984 5.87891 71.8432 5.91314C71.9268 5.96842 72.0138 6.01839 72.1037 6.06278C72.2276 6.12092 72.3557 6.16966 72.4869 6.20858C72.655 6.25628 72.8294 6.27827 73.0041 6.27381C73.1339 6.27352 73.263 6.25413 73.3872 6.21626C73.5025 6.17955 73.6102 6.12237 73.7052 6.04744C73.7915 5.97518 73.8608 5.88479 73.9083 5.78269C73.9557 5.66848 73.9792 5.54571 73.9772 5.42203C73.984 5.28745 73.9507 5.15389 73.8814 5.03834C73.8108 4.93433 73.7227 4.84345 73.6209 4.76976C73.4999 4.68671 73.3717 4.61479 73.2378 4.5549L72.8163 4.35922C72.6708 4.29016 72.5328 4.21726 72.3949 4.13668C72.2543 4.05938 72.1253 3.96249 72.0118 3.84892C71.9029 3.73748 71.8147 3.60757 71.7512 3.46523C71.6795 3.2969 71.6455 3.11484 71.6516 2.93191C71.6481 2.73649 71.6873 2.54267 71.7666 2.36405C71.8395 2.20017 71.9497 2.05564 72.0884 1.942C72.2449 1.81489 72.4264 1.72208 72.6209 1.66958C72.8207 1.60807 73.0288 1.5783 73.2378 1.58133C73.4631 1.57999 73.6872 1.6163 73.9006 1.68877C73.9935 1.71677 74.0833 1.75404 74.1688 1.80004C74.2255 1.82422 74.2784 1.85653 74.3259 1.89596C74.3454 1.91381 74.3622 1.9345 74.3757 1.95735C74.3784 1.97515 74.3784 1.99326 74.3757 2.01106C74.3781 2.03787 74.3781 2.06483 74.3757 2.09164C74.3779 2.13253 74.3779 2.17352 74.3757 2.21442C74.3757 2.26046 74.3757 2.30266 74.3757 2.34103C74.379 2.37164 74.379 2.40251 74.3757 2.43312C74.3697 2.45514 74.3578 2.47507 74.3412 2.49067C74.3252 2.49688 74.3074 2.49688 74.2914 2.49067C74.2434 2.48245 74.1977 2.46414 74.1573 2.43695C74.096 2.39859 74.0194 2.35638 73.9312 2.31034C73.8297 2.25866 73.7232 2.21752 73.6132 2.18756C73.4803 2.14777 73.3421 2.12837 73.2033 2.13C73.0732 2.12592 72.9434 2.14541 72.8202 2.18756C72.7243 2.21974 72.6358 2.27059 72.5596 2.3372C72.4921 2.40007 72.4397 2.47747 72.4064 2.56357C72.3719 2.6515 72.355 2.74536 72.3566 2.83983C72.3481 2.97457 72.3816 3.10863 72.4524 3.22351C72.5211 3.33139 72.611 3.42408 72.7167 3.49593C72.8366 3.58174 72.965 3.65503 73.0999 3.71463L73.5251 3.91414C73.6707 3.97936 73.8127 4.05236 73.9504 4.13284C74.0899 4.21037 74.2187 4.30582 74.3335 4.41677C74.4572 4.53399 74.5552 4.67573 74.6211 4.83295C74.6871 4.99017 74.7196 5.15943 74.7167 5.32994L74.7128 5.33378Z" fill="#1A171B"/>
  <path d="M77.4098 4.10596C77.4152 4.17804 77.4034 4.25037 77.3754 4.31698C77.3651 4.33551 77.3502 4.35097 77.332 4.36176C77.3138 4.37255 77.2931 4.37828 77.2719 4.37837H75.6245C75.6027 4.37857 75.5814 4.37299 75.5625 4.3622C75.5437 4.35142 75.528 4.33581 75.5172 4.31698C75.4894 4.25029 75.4776 4.17803 75.4827 4.10596C75.4774 4.03387 75.4892 3.96155 75.5172 3.89493C75.5282 3.87654 75.544 3.86148 75.5629 3.85135C75.5818 3.84121 75.6031 3.83639 75.6245 3.83738H77.2719C77.2909 3.83375 77.3104 3.83375 77.3294 3.83738C77.348 3.84781 77.3628 3.86395 77.3715 3.88342C77.3861 3.90943 77.3953 3.93815 77.3984 3.96783C77.4075 4.01327 77.4114 4.05962 77.4098 4.10596Z" fill="#1A171B"/>
  <path d="M12.3234 10.6084C5.97108 10.6084 0.843262 15.7096 0.843262 22.0289C0.843262 26.5972 3.56024 30.5563 7.4635 32.3836L9.3386 28.2341C6.88949 27.4347 4.86133 25.6454 3.82811 23.3233C3.75157 23.1329 3.67504 22.9045 3.67504 22.6761C3.67504 21.8005 4.40212 21.0772 5.28227 21.0772C5.97108 21.0772 6.54508 21.496 6.77469 22.1051C7.6931 24.1227 9.683 25.5312 12.0556 25.5312C12.1321 25.5312 12.4765 25.5312 12.553 25.5312C14.9256 25.5312 16.9155 24.1227 17.8339 22.1051C18.0635 21.496 18.6375 21.0772 19.3264 21.0772C20.2065 21.0772 20.9336 21.8005 20.9336 22.6761C20.9336 22.9045 20.8953 23.1329 20.7805 23.3233C19.7473 25.6454 17.7574 27.4727 15.27 28.2341L17.1451 32.3836C21.0866 30.5563 23.8036 26.5972 23.8036 22.0289C23.8036 15.7096 18.6758 10.6084 12.3234 10.6084ZM12.3234 24.0085C10.1422 24.0085 8.38191 22.2573 8.38191 20.0874C8.38191 17.9175 10.1422 16.1664 12.3234 16.1664C14.5047 16.1664 16.265 17.9175 16.265 20.0874C16.265 22.2573 14.5047 24.0085 12.3234 24.0085Z" fill="#2CB3E3" />
</svg>